<svg version="1.1" id="Layer_1" xmlns="http://www.w3.org/2000/svg" xmlns:xlink="http://www.w3.org/1999/xlink" x="0px" y="0px"
	 width="100%" viewBox="0 0 745 558" enable-background="new 0 0 745 558" xml:space="preserve">

<path fill="#020202" opacity="1.000000" stroke="none" 
	d="
M520.300415,117.470924 
	C519.858948,111.433708 522.445923,109.910004 527.923523,109.743507 
	C538.013550,109.436813 548.072021,108.092384 558.897217,107.112167 
	C558.585876,112.410095 558.299622,117.281754 558.003418,122.321526 
	C563.104553,117.936729 567.531677,113.109673 572.877625,109.740593 
	C585.478882,101.799149 599.097412,99.375481 613.277222,105.422829 
	C622.672058,109.429489 627.744507,117.390800 630.872742,126.666382 
	C634.395874,137.112808 634.588074,147.912277 633.667297,158.785721 
	C632.418152,173.536621 631.278198,188.296982 629.977600,203.043243 
	C627.829285,227.400467 625.626221,251.753036 623.370667,276.100555 
	C622.511780,285.371765 621.427856,294.621918 620.498779,303.886963 
	C620.409363,304.778687 620.692139,305.707794 620.880371,307.268188 
	C627.833557,299.618988 634.779663,293.375061 644.360779,290.311432 
	C666.467957,283.242584 687.618713,295.258057 693.075012,317.840332 
	C696.129883,330.483917 694.697449,342.972382 693.759705,355.549103 
	C692.213135,376.290863 690.388184,397.013306 689.038940,417.767181 
	C688.737122,422.409241 687.362549,423.925507 682.637268,424.162628 
	C671.206970,424.736389 659.812317,426.019775 647.630798,427.084595 
	C648.364746,417.098358 649.038391,407.554901 649.773071,398.016144 
	C651.178223,379.771545 652.626709,361.530273 654.027710,343.285339 
	C654.141907,341.796967 654.014221,340.291046 654.025146,338.793518 
	C654.143066,322.627808 643.728271,320.086731 630.469238,324.676178 
	C623.946228,326.934082 619.655579,331.215729 619.156921,339.263733 
	C617.912537,359.348389 615.804810,379.379974 614.012878,399.430115 
	C613.111328,409.517395 612.142944,419.598663 611.153015,430.238953 
	C597.792480,431.426575 584.587402,432.600372 570.609131,433.842926 
	C570.827759,430.015900 570.954407,426.462097 571.244995,422.921783 
	C573.885559,390.752716 576.525208,358.583466 579.224731,326.419281 
	C581.423157,300.225281 583.785645,274.044861 585.922119,247.845917 
	C587.787659,224.969315 589.468994,202.077469 591.171143,179.187866 
	C591.836853,170.234787 592.631592,161.276535 592.848145,152.308075 
	C593.229065,136.535477 584.316223,134.716049 571.689575,137.985916 
	C563.164856,140.193542 558.746765,146.472824 557.988647,155.346558 
	C555.566528,183.694656 553.090027,212.038132 550.706848,240.389481 
	C550.497559,242.878693 549.844299,244.440903 547.041199,244.663284 
	C534.798035,245.634552 522.562439,246.701569 509.356781,247.815430 
	C512.996399,204.281128 516.606689,161.096909 520.300415,117.470924 
z"/>
<path fill="#020202" opacity="1.000000" stroke="none" 
	d="
M146.410019,200.559479 
	C133.937408,196.445801 122.460144,191.240112 113.212616,182.223221 
	C94.228706,163.712799 93.637772,133.341202 113.168671,115.374725 
	C137.569275,92.928627 166.690598,86.128006 198.366318,96.209244 
	C218.313522,102.557739 229.018829,118.050629 232.227631,138.678452 
	C232.801178,142.365524 231.946960,143.933884 227.713821,144.137543 
	C217.913055,144.609055 208.146317,145.775650 198.362854,146.626770 
	C195.904297,146.840622 193.434692,146.927460 190.956985,147.073441 
	C190.705078,146.308487 190.490967,145.868698 190.418121,145.406662 
	C187.848206,129.103546 179.945602,123.304832 163.653244,126.043396 
	C156.194016,127.297203 149.808014,130.695923 145.152939,136.838196 
	C138.187119,146.029449 139.980820,156.608719 150.319672,161.571716 
	C158.621368,165.556808 167.645584,168.084015 176.439026,170.985916 
	C188.361313,174.920364 200.005539,179.518372 209.242172,188.262283 
	C231.851257,209.665329 230.930191,245.679504 205.946732,264.334808 
	C179.224380,284.288574 149.088684,288.158142 118.245316,274.742279 
	C97.833427,265.863770 88.193054,248.557297 86.741051,225.960434 
	C100.810173,224.708374 114.497009,223.490341 128.857712,222.212341 
	C129.165466,223.959396 129.573929,225.829361 129.815323,227.720673 
	C131.455338,240.570328 137.257294,246.838364 150.035812,248.464218 
	C159.049042,249.611023 167.616730,247.841995 174.945877,242.016968 
	C184.711945,234.255096 187.925827,216.325882 171.241608,209.121002 
	C163.347412,205.712006 154.951019,203.465942 146.410019,200.559479 
z"/>
<path fill="#020202" opacity="1.000000" stroke="none" 
	d="
M235.747528,382.680359 
	C242.276764,364.331146 248.635376,346.338257 255.128113,328.393860 
	C255.612396,327.055389 256.961884,325.165649 258.069763,325.048248 
	C272.237732,323.546844 286.435059,322.322327 301.359802,320.960480 
	C295.544861,335.581604 290.070007,349.444305 284.522644,363.277924 
	C268.207397,403.963593 251.909805,444.656494 235.505249,485.306152 
	C229.790741,499.466400 222.160538,512.090515 207.290619,518.598328 
	C197.171509,523.026978 186.681320,523.490417 176.005493,521.747498 
	C174.875427,521.563049 173.196671,519.715820 173.167786,518.603821 
	C172.935242,509.652679 173.037567,500.692902 173.037567,491.980591 
	C178.998367,490.560272 184.198608,489.975555 188.808411,488.007721 
	C192.256104,486.535950 195.505890,483.726013 197.866150,480.739319 
	C206.196381,470.198273 203.986145,458.788544 200.800613,446.835510 
	C192.460297,415.540009 184.858002,384.047882 176.948364,352.637482 
	C175.294022,346.067780 173.583069,339.512329 171.744003,332.349731 
	C186.076553,331.106140 199.903961,329.906342 214.061676,328.677917 
	C218.628647,353.238037 223.109192,377.333405 227.589737,401.428772 
	C227.944962,401.497833 228.300171,401.566895 228.655396,401.635956 
	C230.973679,395.440216 233.291962,389.244476 235.747528,382.680359 
z"/>
<path fill="#020202" opacity="1.000000" stroke="none" 
	d="
M403.456482,128.402893 
	C420.931915,117.372856 439.523560,113.145607 459.552795,117.045326 
	C482.973602,121.605370 496.236328,140.670685 493.961914,164.473328 
	C491.970184,185.317673 490.547760,206.236069 489.657410,227.155090 
	C489.355408,234.249741 491.445557,241.446198 492.526093,249.195221 
	C487.350769,249.718399 481.613953,250.351776 475.866333,250.863983 
	C470.395721,251.351532 464.804840,251.181503 459.467377,252.277390 
	C454.042023,253.391342 452.208344,251.090012 451.556213,246.436676 
	C451.396545,245.297577 451.110565,244.176178 450.752014,242.398895 
	C448.052490,244.901855 445.741211,247.176773 443.293121,249.293457 
	C425.918427,264.316223 397.529388,261.820404 383.401672,244.059097 
	C369.482208,226.559631 374.401550,198.766434 393.771484,185.598724 
	C406.056641,177.247253 419.954437,173.637604 434.474609,171.995789 
	C440.078461,171.362183 445.717773,171.042221 452.004364,170.524750 
	C452.323456,166.881195 452.894867,163.146866 452.927673,159.407837 
	C452.998169,151.375153 450.242371,146.931213 444.794403,145.647171 
	C437.796112,143.997711 429.410461,146.793686 427.847260,153.506943 
	C425.834930,162.149048 420.389343,162.320847 413.840851,162.766174 
	C404.091583,163.429153 394.370331,164.503693 384.221039,165.441528 
	C383.862183,149.215332 390.992249,137.624374 403.456482,128.402893 
M450.107452,204.597031 
	C450.407074,200.868103 450.706665,197.139175 451.043060,192.952057 
	C446.654449,193.341507 442.859192,193.499512 439.119995,194.043213 
	C427.273499,195.765762 418.719360,204.109253 417.173584,215.248795 
	C416.005157,223.669067 420.671417,228.741974 429.099182,228.213547 
	C440.810425,227.479248 448.665497,218.947784 450.107452,204.597031 
z"/>
<path fill="#020202" opacity="1.000000" stroke="none" 
	d="
M301.668030,437.531921 
	C304.871307,399.287689 307.980804,361.498627 311.246643,323.723114 
	C311.361450,322.395325 312.920990,320.215515 313.991119,320.097290 
	C325.556946,318.819458 337.159668,317.875671 349.393158,316.783386 
	C349.155670,321.963623 348.934448,326.788605 348.745300,330.914764 
	C355.571045,325.999084 362.052551,320.366425 369.397827,316.290222 
	C378.217194,311.395935 388.148804,310.581757 398.017365,312.996552 
	C411.415222,316.274811 418.230469,325.873962 422.103699,338.450500 
	C426.153381,351.600006 424.409271,364.842712 423.440521,378.076965 
	C422.117706,396.148071 420.524658,414.199371 419.042145,432.258759 
	C418.824646,434.908447 418.550964,437.553619 418.349487,440.204437 
	C417.804169,447.378998 417.811768,447.351288 410.866150,447.902985 
	C399.804199,448.781708 388.745667,449.702698 376.999054,450.661896 
	C377.424591,444.226654 377.745209,438.334900 378.215424,432.455109 
	C379.925629,411.069580 381.770416,389.694305 383.355713,368.299683 
	C383.672089,364.029846 383.377777,359.650787 382.810944,355.395935 
	C382.133057,350.307434 378.518036,346.727081 373.539673,346.373047 
	C364.190369,345.708191 356.118896,348.500977 350.462372,356.449799 
	C349.737335,357.468628 349.242096,358.831604 349.130157,360.079132 
	C347.286346,380.620697 345.526825,401.169830 343.735718,421.716187 
	C342.884277,431.483429 342.058350,441.253662 341.065247,451.006714 
	C340.957581,452.064178 339.895203,453.820435 339.138123,453.897278 
	C326.284302,455.201874 313.408661,456.291962 299.925140,457.483582 
	C300.528351,450.461670 301.064026,444.225494 301.668030,437.531921 
z"/>
<path fill="#020202" opacity="1.000000" stroke="none" 
	d="
M279.643646,264.397064 
	C258.297455,255.057388 246.946533,238.768372 244.682617,216.236649 
	C242.417847,193.696274 246.235733,172.468704 259.809753,153.659729 
	C275.158569,132.391464 305.125793,121.793999 329.962402,129.481842 
	C348.645081,135.264816 359.022064,148.994919 364.100677,167.331329 
	C367.325256,178.973709 366.226074,190.802322 365.626648,202.579422 
	C365.562714,203.836334 362.990204,205.864655 361.437012,206.011948 
	C337.893188,208.244507 314.324768,210.217239 290.763916,212.271454 
	C289.155243,212.411713 287.560852,212.716019 286.027985,212.934341 
	C285.759033,226.753479 296.487701,236.858139 309.564789,235.505920 
	C323.893127,234.024307 325.977478,232.981964 341.293488,219.424820 
	C347.228729,226.024277 353.260468,232.569672 359.000122,239.361847 
	C359.576324,240.043671 358.779999,242.507172 357.949890,243.661407 
	C347.234344,258.560974 331.788940,265.184082 314.343811,268.005310 
	C302.635376,269.898865 291.131287,268.843994 279.643646,264.397064 
M319.525116,161.619232 
	C304.034698,155.564026 288.743805,165.162277 286.315338,186.481430 
	C299.608673,185.321198 312.800293,184.169846 326.187317,183.001434 
	C327.867096,174.686523 327.148193,167.489166 319.525116,161.619232 
z"/>
<path fill="#020202" opacity="1.000000" stroke="none" 
	d="
M58.767262,412.747131 
	C60.525032,392.063568 62.262337,371.846497 63.998806,351.629364 
	C65.605469,332.923462 67.211227,314.217529 68.832870,295.331268 
	C83.025230,294.105133 96.884323,292.907806 111.403099,291.653473 
	C107.139557,341.713165 102.928581,391.155609 98.637611,441.537354 
	C123.405869,439.401337 147.498245,437.323639 172.416870,435.174683 
	C171.465576,446.594391 170.551361,457.568970 169.607697,468.896912 
	C130.856552,472.295105 92.445923,475.663422 53.306072,479.095703 
	C55.146946,456.802917 56.946690,435.008270 58.767262,412.747131 
z"/>
<path fill="#020202" opacity="1.000000" stroke="none" 
	d="
M533.231323,389.257385 
	C541.612061,388.553528 549.535339,387.885284 558.010559,387.170532 
	C558.516541,396.361298 556.768127,404.601807 552.736633,412.408112 
	C537.146484,442.596313 493.293060,453.010834 466.124786,432.764069 
	C454.991364,424.467041 448.451324,412.910309 445.903778,399.430756 
	C441.204010,374.563507 443.720825,350.752472 457.902344,329.015472 
	C474.397675,303.731964 511.573120,293.298401 536.826050,307.134827 
	C553.947998,316.516205 560.493530,332.154968 562.034668,351.353882 
	C549.206787,352.472809 536.839539,353.551544 523.907776,354.679504 
	C523.650452,352.635620 523.532349,351.036377 523.237305,349.470459 
	C521.989380,342.846283 519.764954,336.829163 512.534607,334.563263 
	C505.625580,332.398071 496.336945,334.850922 492.541016,341.204834 
	C489.316040,346.603027 486.466248,352.986267 486.017029,359.121613 
	C485.112518,371.474792 485.265930,384.013916 486.304749,396.365173 
	C487.078247,405.561096 491.958160,409.807220 499.100677,410.627045 
	C506.931793,411.525879 515.769043,407.115814 517.533569,399.211700 
	C519.348206,391.083008 523.614075,388.992126 530.790833,389.508179 
	C531.443298,389.555115 532.112488,389.370239 533.231323,389.257385 
z"/>

</svg>